<svg width="800.000000" height="800.000000" viewBox="0 0 800 800" fill="none" xmlns="http://www.w3.org/2000/svg" xmlns:xlink="http://www.w3.org/1999/xlink">
	<desc>
			Created with Pixso.
	</desc>
	<defs>
		<clipPath id="clip2_45">
			<rect id="画板 1" width="800.000000" height="800.000000" fill="white" fill-opacity="0"/>
		</clipPath>
	</defs>
	<g clip-path="url(#clip2_45)">
		<path id="底部线条1" d="M184.7 586.85L184.7 621.99" stroke="#00186F" stroke-opacity="1.000000" stroke-width="16.214153" stroke-linecap="round"/>
		<path id="底部线条2" d="M225.69 586.85L225.69 622" stroke="#00186F" stroke-opacity="1.000000" stroke-width="16.214153" stroke-linecap="round"/>
		<path id="底部线条3" d="M573.39 586.85L573.39 622" stroke="#00186F" stroke-opacity="1.000000" stroke-width="16.214153" stroke-linecap="round"/>
		<path id="底部线条4" d="M614.82 586.85L614.82 622" stroke="#00186F" stroke-opacity="1.000000" stroke-width="16.214153" stroke-linecap="round"/>
		<path id="直线 1" d="M497.72 177L459.89 220.23" stroke="#19AFEA" stroke-opacity="1.000000" stroke-width="10.809436" stroke-linecap="round"/>
		<path id="直线 2" d="M500.42 247.26L564.38 213.03" stroke="#19AFEA" stroke-opacity="1.000000" stroke-width="10.809436" stroke-linecap="round"/>
		<path id="直线 3" d="M493.22 291.4L539.16 278.78" stroke="#19AFEA" stroke-opacity="1.000000" stroke-width="10.809436" stroke-linecap="round"/>
		<path id="直线 4" d="M561.68 273.38L638.25 251.76" stroke="#19AFEA" stroke-opacity="1.000000" stroke-width="10.809436" stroke-linecap="round"/>
		<path id="直线 5" d="M495.92 324.72L584.2 325.63" stroke="#19AFEA" stroke-opacity="1.000000" stroke-width="10.809436" stroke-linecap="round"/>
		<path id="直线 6" d="M512.14 360.76L635.54 397.69" stroke="#19AFEA" stroke-opacity="1.000000" stroke-width="10.809436" stroke-linecap="round"/>
		<path id="直线 7" d="M513.94 408.5L562.58 434.62" stroke="#19AFEA" stroke-opacity="1.000000" stroke-width="10.809436" stroke-linecap="round"/>
		<path id="直线 8" d="M499.52 451.74L534.65 495.87" stroke="#19AFEA" stroke-opacity="1.000000" stroke-width="10.809436" stroke-linecap="round"/>
		<path id="直线 9" d="M264.42 495.87L300.45 450.83" stroke="#19AFEA" stroke-opacity="1.000000" stroke-width="10.809436" stroke-linecap="round"/>
		<path id="直线 10" d="M237.4 434.62L286.04 407.6" stroke="#19AFEA" stroke-opacity="1.000000" stroke-width="10.809436" stroke-linecap="round"/>
		<path id="直线 11" d="M163.53 397.69L287.84 359.86" stroke="#19AFEA" stroke-opacity="1.000000" stroke-width="10.809436" stroke-linecap="round"/>
		<path id="直线 12" d="M215.78 324.72L303.15 324.72" stroke="#19AFEA" stroke-opacity="1.000000" stroke-width="10.809436" stroke-linecap="round"/>
		<path id="直线 13" d="M160.83 251.76L238.3 273.38" stroke="#19AFEA" stroke-opacity="1.000000" stroke-width="10.809436" stroke-linecap="round"/>
		<path id="直线 14" d="M259.92 278.78L307.66 291.4" stroke="#19AFEA" stroke-opacity="1.000000" stroke-width="10.809436" stroke-linecap="round"/>
		<path id="直线 15" d="M234.69 212.13L299.55 246.36" stroke="#19AFEA" stroke-opacity="1.000000" stroke-width="10.809436" stroke-linecap="round"/>
		<path id="直线 16" d="M302.25 177L340.08 220.23" stroke="#19AFEA" stroke-opacity="1.000000" stroke-width="10.809436" stroke-linecap="round"/>
		<path id="多边形 1" d="M341.03 272.03L458.04 272.03L399.54 230.14L341.03 272.03Z" stroke="#00186F" stroke-opacity="1.000000" stroke-width="16.214153" stroke-linejoin="round"/>
		<path id="矢量 1" d="M297.75 589.56L326.57 589.56L326.57 571.54L297.75 571.54Q290.29 571.54 283.92 574.18Q277.55 576.82 272.27 582.09Q266.99 587.37 264.35 593.74Q261.72 600.11 261.72 607.57L261.72 612.98L123 612.98C117.95 612.98 113.99 616.94 113.99 621.98C113.99 627.03 117.95 630.99 123 630.99L677.88 630.99C682.92 630.99 686.89 627.03 686.89 621.98C686.89 616.94 682.92 612.98 677.88 612.98L536.46 612.98L536.46 607.57Q536.46 600.11 533.82 593.74Q531.18 587.37 525.9 582.09Q520.63 576.82 514.26 574.18Q507.89 571.54 500.42 571.54L475.2 571.54L475.2 589.56L500.42 589.56Q504.16 589.56 507.34 590.87Q510.53 592.19 513.16 594.83Q515.8 597.47 517.12 600.65Q518.44 603.84 518.44 607.57L518.44 612.98L279.73 612.98L279.73 607.57Q279.73 603.84 281.05 600.65Q282.37 597.47 285.01 594.83Q287.65 592.19 290.83 590.87Q294.02 589.56 297.75 589.56Z" fill="#00186F" fill-opacity="1.000000" fill-rule="evenodd"/>
		<path id="矢量 2" d="M344.14 408.5L453.58 408.5L481.51 381.02L318.92 381.02L333.1 394.76L344.14 408.5L321.17 620.63L479.26 620.63L453.58 408.5" stroke="#00186F" stroke-opacity="1.000000" stroke-width="16.214153" stroke-linejoin="round"/>
		<path id="矢量 3" d="M340.99 348.33L360.7 348.33L442.84 348.33L460.79 348.33L460.79 381.47L340.99 381.47L340.99 348.33ZM360.7 348.33L360.7 276.98M442.84 348.33L442.84 276.98" stroke="#00186F" stroke-opacity="1.000000" stroke-width="16.214153" stroke-linejoin="round"/>
		<path id="直线 17" d="M399.54 186.9L399.54 230.14" stroke="#00186F" stroke-opacity="1.000000" stroke-width="16.214153" stroke-linecap="round"/>
		<path id="直线 17" d="M372.51 347.24L372.51 378.77" stroke="#00186F" stroke-opacity="1.000000" stroke-width="13.511795" stroke-linecap="round"/>
		<path id="直线 17" d="M425.66 347.24L425.66 378.77" stroke="#00186F" stroke-opacity="1.000000" stroke-width="13.511795" stroke-linecap="round"/>
		<path id="大门" d="M382 621.98C379.25 621.98 377.02 619.75 377.02 617L377.02 583.05L377.02 555.78C377.02 543.09 387.3 532.81 399.99 532.81C412.67 532.81 422.96 543.09 422.96 555.78L422.96 583.05L422.96 617C422.96 619.75 420.73 621.98 417.98 621.98L382 621.98Z" stroke="#00186F" stroke-opacity="1.000000" stroke-width="16.214153" stroke-linejoin="round"/>
		<rect id="窗户" x="377.021729" y="451.739838" rx="0.900786" width="45.940102" height="34.229881" stroke="#00186F" stroke-opacity="1.000000" stroke-width="13.511795"/>
	</g>
</svg>
